<svg version="1.1" xmlns="http://www.w3.org/2000/svg" viewBox="0 0 1473.4252250031745 2229.25055403004" width="1473.4252250031745" height="2229.25055403004">
  <!-- svg-source:excalidraw -->
  
  <defs>
    <style class="style-fonts">
      @font-face {
        font-family: "Virgil";
        src: url("https://excalidraw.com/Virgil.woff2");
      }
      @font-face {
        font-family: "Cascadia";
        src: url("https://excalidraw.com/Cascadia.woff2");
      }
      @font-face {
        font-family: "Assistant";
        src: url("https://excalidraw.com/Assistant-Regular.woff2");
      }
    </style>
    
  </defs>
  <rect x="0" y="0" width="1473.4252250031745" height="2229.25055403004" fill="#ffffff"></rect><g stroke-linecap="round" transform="translate(605.2377250031747 166.4380633432658) rotate(0 156.25 54.6875)"><path d="M27.34 0 C114.53 1.92, 200.33 -0.31, 285.16 0 M27.34 0 C121.02 -1.59, 214.64 -0.9, 285.16 0 M285.16 0 C302.92 0.55, 311.18 10.15, 312.5 27.34 M285.16 0 C303.78 -0.18, 313.26 9.41, 312.5 27.34 M312.5 27.34 C311.72 40, 311.14 55.26, 312.5 82.03 M312.5 27.34 C313.11 48.67, 312.71 69.08, 312.5 82.03 M312.5 82.03 C313.24 101.45, 302.63 109.85, 285.16 109.38 M312.5 82.03 C313.44 98.5, 301.64 111.49, 285.16 109.38 M285.16 109.38 C201.42 110.61, 115.69 108.8, 27.34 109.38 M285.16 109.38 C182.98 110.02, 79.23 109.1, 27.34 109.38 M27.34 109.38 C10.58 110.97, -0.65 100.61, 0 82.03 M27.34 109.38 C10.35 107.15, 2.11 100.85, 0 82.03 M0 82.03 C0.07 68.96, -0.86 61.04, 0 27.34 M0 82.03 C-0.02 66.61, -1.17 51.59, 0 27.34 M0 27.34 C-1.99 8.28, 8.9 1.59, 27.34 0 M0 27.34 C-1.38 11.07, 8.85 -2.28, 27.34 0" stroke="#1e1e1e" stroke-width="1" fill="none"></path></g><g transform="translate(619.3037040070809 185.1880633432658) rotate(0 138.89393615722656 35)"><text x="138.89393615722656" y="0" font-family="Virgil, Segoe UI Emoji" font-size="28px" fill="#1e1e1e" text-anchor="middle" style="white-space: pre;" direction="ltr" dominant-baseline="text-before-edge">Waiting for delivery </text><text x="138.89393615722656" y="35" font-family="Virgil, Segoe UI Emoji" font-size="28px" fill="#1e1e1e" text-anchor="middle" style="white-space: pre;" direction="ltr" dominant-baseline="text-before-edge">instruction</text></g><g mask="url(#mask-6oFBrUQty-N5H9ytn5_Zj)" stroke-linecap="round"><g transform="translate(751.6714555918348 163.3130633432658) rotate(0 -178.99860492684323 -38.782669825068695)"><path d="M-0.51 -1.02 C-6.34 -24.74, 10.24 -124.47, -34.26 -143.13 C-78.75 -161.78, -213.88 -146.88, -267.49 -112.97 C-321.11 -79.07, -373.58 30.16, -355.93 60.3 C-338.28 90.43, -196.08 67.06, -161.59 67.84 C-127.11 68.63, -151.14 65.4, -149.04 65.01 M1.42 1.06 C-4.66 -22.95, 9.03 -125.62, -35.38 -144.92 C-79.78 -164.22, -211.6 -148.6, -264.99 -114.74 C-318.39 -80.89, -373.25 27.81, -355.75 58.22 C-338.24 88.64, -194.1 66.82, -159.98 67.76 C-125.86 68.7, -153 64.47, -151.02 63.89" stroke="#1e1e1e" stroke-width="1" fill="none"></path></g><g transform="translate(751.6714555918348 163.3130633432658) rotate(0 -178.99860492684323 -38.782669825068695)"><path d="M-145.26 63.81 C-147.82 63.66, -149.1 63.49, -151.02 63.89 M-145.26 63.81 C-147.78 63.67, -149.64 63.88, -151.02 63.89" stroke="#1e1e1e" stroke-width="1" fill="none"></path></g><g transform="translate(751.6714555918348 163.3130633432658) rotate(0 -178.99860492684323 -38.782669825068695)"><path d="M-146.56 67.53 C-148.63 66.05, -149.44 64.54, -151.02 63.89 M-146.56 67.53 C-148.56 65.93, -149.92 64.68, -151.02 63.89" stroke="#1e1e1e" stroke-width="1" fill="none"></path></g></g><mask id="mask-6oFBrUQty-N5H9ytn5_Zj"><rect x="0" y="0" fill="#fff" width="1207.480186180495" height="475.8130633432658"></rect><rect x="400.9047537935935" y="112.32628899688939" fill="#000" width="33.54399108886719" height="35" opacity="1"></rect></mask><g transform="translate(400.9047537935934 112.32628899688945) rotate(0 171.76809687139823 12.20410452130767)"><text x="16.771995544433594" y="0" font-family="Virgil, Segoe UI Emoji" font-size="28px" fill="#1e1e1e" text-anchor="middle" style="white-space: pre;" direction="ltr" dominant-baseline="text-before-edge">No</text></g><g mask="url(#mask-30GPZY3iePhM814Yo4ta_)" stroke-linecap="round"><g transform="translate(763.6788543008115 278.9380633432658) rotate(0 0.3255969682749651 75.78125)"><path d="M1.09 0.33 C1.34 25.71, 0.54 126.81, 0.4 151.86 M0.2 -0.55 C0.36 24.5, -0.52 124.56, -0.68 149.89" stroke="#1e1e1e" stroke-width="1" fill="none"></path></g><g transform="translate(763.6788543008115 278.9380633432658) rotate(0 0.3255969682749651 75.78125)"><path d="M-10.73 121.62 C-8.18 127.06, -6.11 132.71, -0.68 149.89 M-10.73 121.62 C-8.91 128.43, -5.48 133.4, -0.68 149.89" stroke="#1e1e1e" stroke-width="1" fill="none"></path></g><g transform="translate(763.6788543008115 278.9380633432658) rotate(0 0.3255969682749651 75.78125)"><path d="M9.79 121.78 C8.02 127.37, 5.76 132.98, -0.68 149.89 M9.79 121.78 C7.08 128.65, 5.99 133.58, -0.68 149.89" stroke="#1e1e1e" stroke-width="1" fill="none"></path></g></g><mask id="mask-30GPZY3iePhM814Yo4ta_"><rect x="0" y="0" fill="#fff" width="864.3300482373614" height="530.5005633432659"></rect><rect x="739.7424578608833" y="337.21931334326587" fill="#000" width="48.52398681640625" height="35" opacity="1"></rect></mask><g transform="translate(739.7424578608834 337.21931334326587) rotate(0 24.16415607822171 17.374852473200292)"><text x="24.261993408203125" y="0" font-family="Virgil, Segoe UI Emoji" font-size="28px" fill="#1e1e1e" text-anchor="middle" style="white-space: pre;" direction="ltr" dominant-baseline="text-before-edge">YEs</text></g><g stroke-linecap="round" transform="translate(614.6127250031747 443.0005633432658) rotate(0 149.21875 57.8125)"><path d="M28.91 0 C95.61 -0.65, 164.56 -2.06, 269.53 0 M28.91 0 C96.31 1.36, 163.77 1.79, 269.53 0 M269.53 0 C287.33 1.71, 299.09 9.89, 298.44 28.91 M269.53 0 C290.11 -0.37, 299.19 9.41, 298.44 28.91 M298.44 28.91 C299.46 44.84, 297.67 63.47, 298.44 86.72 M298.44 28.91 C297.48 44.4, 297.74 58.92, 298.44 86.72 M298.44 86.72 C297.6 107.95, 287.1 116.85, 269.53 115.63 M298.44 86.72 C300.26 107.52, 288.7 115.56, 269.53 115.63 M269.53 115.63 C183.08 117.97, 96.62 117.71, 28.91 115.63 M269.53 115.63 C201.87 116.81, 136.3 116.81, 28.91 115.63 M28.91 115.63 C10.13 114.7, -1.11 107.49, 0 86.72 M28.91 115.63 C9.37 114.3, 2.18 104.83, 0 86.72 M0 86.72 C1.87 63.5, 1.23 40.85, 0 28.91 M0 86.72 C-0.7 70.65, -0.93 55.24, 0 28.91 M0 28.91 C-1.27 7.64, 7.91 1.91, 28.91 0 M0 28.91 C1.29 10.84, 9.06 2.17, 28.91 0" stroke="#1e1e1e" stroke-width="1" fill="none"></path></g><g transform="translate(633.8555381135262 465.8130633432658) rotate(0 129.97593688964844 35)"><text x="129.97593688964844" y="0" font-family="Virgil, Segoe UI Emoji" font-size="28px" fill="#1e1e1e" text-anchor="middle" style="white-space: pre;" direction="ltr" dominant-baseline="text-before-edge">Wait client put </text><text x="129.97593688964844" y="35" font-family="Virgil, Segoe UI Emoji" font-size="28px" fill="#1e1e1e" text-anchor="middle" style="white-space: pre;" direction="ltr" dominant-baseline="text-before-edge">stuff in for 5 mins</text></g><g mask="url(#mask-UWepqLrzhC2rY3UyOq3SR)" stroke-linecap="round"><g transform="translate(909.9252250031747 502.3755633432658) rotate(0 155.14975622404995 -146.81836246409995)"><path d="M0.3 -1.12 C47.91 -2.52, 239.79 38.84, 284.48 -9.33 C329.16 -57.49, 314.01 -244.15, 268.44 -290.09 C222.87 -336.02, 53.78 -285.77, 11.06 -284.95 M-1 0.91 C46.56 -0.2, 238.83 40.61, 283.58 -7.76 C328.33 -56.13, 312.88 -242.77, 267.51 -289.31 C222.14 -335.84, 54.07 -287.81, 11.37 -286.99" stroke="#1e1e1e" stroke-width="1" fill="none"></path></g><g transform="translate(909.9252250031747 502.3755633432658) rotate(0 155.14975622404995 -146.81836246409995)"><path d="M37.76 -301.25 C30.45 -298.13, 27.06 -295.93, 11.37 -286.99 M37.76 -301.25 C33.1 -297.32, 26.96 -295.91, 11.37 -286.99" stroke="#1e1e1e" stroke-width="1" fill="none"></path></g><g transform="translate(909.9252250031747 502.3755633432658) rotate(0 155.14975622404995 -146.81836246409995)"><path d="M40.75 -280.94 C32.99 -281.92, 29 -283.83, 11.37 -286.99 M40.75 -280.94 C35.43 -281.35, 28.65 -284.3, 11.37 -286.99" stroke="#1e1e1e" stroke-width="1" fill="none"></path></g></g><mask id="mask-UWepqLrzhC2rY3UyOq3SR"><rect x="0" y="0" fill="#fff" width="1294.3002250031745" height="891.4380633432659"></rect><rect x="1203.1316868841682" y="329.78091455854405" fill="#000" width="33.54399108886719" height="35" opacity="1"></rect></mask><g transform="translate(1203.1316868841682 329.78091455854405) rotate(0 -138.05670565694368 25.776286320621864)"><text x="16.771995544433594" y="0" font-family="Virgil, Segoe UI Emoji" font-size="28px" fill="#1e1e1e" text-anchor="middle" style="white-space: pre;" direction="ltr" dominant-baseline="text-before-edge">No</text></g><g mask="url(#mask-gSGoCYa9IQG2XGSscZoRO)" stroke-linecap="round"><g transform="translate(765.4481391379792 561.7505633432659) rotate(0 -0.4642335834862479 77.625)"><path d="M-0.44 -0.93 C-0.75 24.98, -0.92 129.27, -0.81 155.2 M1.52 1.2 C0.98 27.32, -1.46 130.97, -1.69 156.71" stroke="#1e1e1e" stroke-width="1" fill="none"></path></g><g transform="translate(765.4481391379792 561.7505633432659) rotate(0 -0.4642335834862479 77.625)"><path d="M-11.46 128.34 C-9.32 139.47, -4.1 152.11, -1.69 156.71 M-11.46 128.34 C-8.46 135.22, -6.54 142.11, -1.69 156.71" stroke="#1e1e1e" stroke-width="1" fill="none"></path></g><g transform="translate(765.4481391379792 561.7505633432659) rotate(0 -0.4642335834862479 77.625)"><path d="M9.06 128.7 C3.32 139.61, 0.66 152.12, -1.69 156.71 M9.06 128.7 C6.94 135.65, 3.73 142.45, -1.69 156.71" stroke="#1e1e1e" stroke-width="1" fill="none"></path></g></g><mask id="mask-gSGoCYa9IQG2XGSscZoRO"><rect x="0" y="0" fill="#fff" width="866.3766063049517" height="817.0005633432659"></rect><rect x="742.4999120242196" y="621.8755633432659" fill="#000" width="44.967987060546875" height="35" opacity="1"></rect></mask><g transform="translate(742.4999120242196 621.8755633432659) rotate(0 22.86225870582274 17.765175948948638)"><text x="22.483993530273438" y="0" font-family="Virgil, Segoe UI Emoji" font-size="28px" fill="#1e1e1e" text-anchor="middle" style="white-space: pre;" direction="ltr" dominant-baseline="text-before-edge">Yes</text></g><g stroke-linecap="round" transform="translate(606.8002250031747 718.0005633432659) rotate(0 159.375 48.4375)"><path d="M24.22 0 C122.05 -0.89, 220.21 1.97, 294.53 0 M24.22 0 C87.9 0.68, 151.54 0.75, 294.53 0 M294.53 0 C309.01 -1.18, 318.66 6.58, 318.75 24.22 M294.53 0 C308.95 -0.78, 318.54 9.25, 318.75 24.22 M318.75 24.22 C318.76 41.58, 316.97 58.37, 318.75 72.66 M318.75 24.22 C318.23 41.08, 319.63 56.58, 318.75 72.66 M318.75 72.66 C320.52 87.12, 309.32 98.27, 294.53 96.88 M318.75 72.66 C317.55 86.59, 309.98 96.98, 294.53 96.88 M294.53 96.88 C198.78 98.5, 102.52 99.08, 24.22 96.88 M294.53 96.88 C220.6 97.55, 145.04 97.25, 24.22 96.88 M24.22 96.88 C7.62 98.46, -0.86 88.97, 0 72.66 M24.22 96.88 C7.03 97.64, -0.66 89.25, 0 72.66 M0 72.66 C1.36 53.58, -0.43 36.24, 0 24.22 M0 72.66 C-0.41 57.1, 1.06 42.25, 0 24.22 M0 24.22 C0.13 8.49, 9.94 -1.92, 24.22 0 M0 24.22 C-0.58 7.67, 8.94 1.92, 24.22 0" stroke="#1e1e1e" stroke-width="1" fill="none"></path></g><g transform="translate(628.2207877473153 749.8755633432659) rotate(0 142.64193725585938 15.466905871637096)"><text x="142.64193725585935" y="0" font-family="Virgil, Segoe UI Emoji" font-size="24.74704939461938px" fill="#1e1e1e" text-anchor="middle" style="white-space: pre;" direction="ltr" dominant-baseline="text-before-edge">Go to target location </text></g><g stroke-linecap="round"><g transform="translate(765.9956850613579 821.1255633432659) rotate(0 1.393978555074284 50.78125)"><path d="M-1.03 -0.16 C-0.46 16.8, 3.03 84.32, 3.58 101.13 M0.63 -1.29 C1.1 15.89, 2.95 85.3, 3.04 102.44" stroke="#1e1e1e" stroke-width="1" fill="none"></path></g><g transform="translate(765.9956850613579 821.1255633432659) rotate(0 1.393978555074284 50.78125)"><path d="M-7.71 74.44 C-4.75 84.61, -1.84 91.14, 3.04 102.44 M-7.71 74.44 C-6.14 81.06, -3.03 87.05, 3.04 102.44" stroke="#1e1e1e" stroke-width="1" fill="none"></path></g><g transform="translate(765.9956850613579 821.1255633432659) rotate(0 1.393978555074284 50.78125)"><path d="M12.8 74.08 C9.34 84.19, 5.83 90.82, 3.04 102.44 M12.8 74.08 C9.69 80.98, 8.1 87.05, 3.04 102.44" stroke="#1e1e1e" stroke-width="1" fill="none"></path></g></g><mask></mask><g stroke-linecap="round" transform="translate(616.1752250031747 935.1880633432659) rotate(0 158.59375 61.71875)"><path d="M30.86 0 C120.97 0.85, 208.02 0.81, 286.33 0 M30.86 0 C127.42 -1.7, 223.5 -0.61, 286.33 0 M286.33 0 C306.64 -1.85, 318.89 8.37, 317.19 30.86 M286.33 0 C305.78 2.28, 317.49 10.61, 317.19 30.86 M317.19 30.86 C315.57 43.65, 316.86 58.2, 317.19 92.58 M317.19 30.86 C317.77 47.4, 317.12 64.69, 317.19 92.58 M317.19 92.58 C316.96 114.69, 307.17 124.78, 286.33 123.44 M317.19 92.58 C318.14 112.95, 306.9 123.87, 286.33 123.44 M286.33 123.44 C185.33 123.68, 86.62 123.52, 30.86 123.44 M286.33 123.44 C217.84 120.92, 149.9 121.42, 30.86 123.44 M30.86 123.44 C8.55 124.58, -1.19 113.51, 0 92.58 M30.86 123.44 C9.87 123.18, 1.83 114.72, 0 92.58 M0 92.58 C0.11 72.29, -1.03 55.81, 0 30.86 M0 92.58 C-0.23 73.11, 0.51 54.36, 0 30.86 M0 30.86 C1.71 9.53, 9.12 1.84, 30.86 0 M0 30.86 C0.05 8.97, 11.35 0.57, 30.86 0" stroke="#1e1e1e" stroke-width="1" fill="none"></path></g><g transform="translate(625.8328600429463 955.7692153277035) rotate(0.5121872690325256 147.68592834472662 35)"><text x="147.68592834472656" y="0" font-family="Virgil, Segoe UI Emoji" font-size="28px" fill="#1e1e1e" text-anchor="middle" style="white-space: pre;" direction="ltr" dominant-baseline="text-before-edge">Meet things stopping </text><text x="147.68592834472656" y="35" font-family="Virgil, Segoe UI Emoji" font-size="28px" fill="#1e1e1e" text-anchor="middle" style="white-space: pre;" direction="ltr" dominant-baseline="text-before-edge">from going forward </text></g><g stroke-linecap="round" transform="translate(266.17522500317466 1183.6255633432659) rotate(0 146.875 61.71875)"><path d="M30.86 0 C110.42 1.85, 189.61 1.96, 262.89 0 M30.86 0 C115.78 1.35, 201.3 0.66, 262.89 0 M262.89 0 C282.74 -1.09, 294.67 9.7, 293.75 30.86 M262.89 0 C284.42 -1.63, 294.57 8.57, 293.75 30.86 M293.75 30.86 C292.64 41.4, 294.89 56.72, 293.75 92.58 M293.75 30.86 C293.36 53, 293.99 73.72, 293.75 92.58 M293.75 92.58 C292.17 113.22, 281.88 124.35, 262.89 123.44 M293.75 92.58 C293.31 112.96, 282.09 124.34, 262.89 123.44 M262.89 123.44 C172.7 123.28, 86.09 122.94, 30.86 123.44 M262.89 123.44 C196.54 122.76, 132.55 121.51, 30.86 123.44 M30.86 123.44 C11.86 122.01, -0.3 112.5, 0 92.58 M30.86 123.44 C12.37 121.23, 0.2 111.05, 0 92.58 M0 92.58 C-1.3 72.65, 0.36 47.81, 0 30.86 M0 92.58 C1.11 77.1, 0.2 60.46, 0 30.86 M0 30.86 C0.5 9.16, 9.92 1.51, 30.86 0 M0 30.86 C1.76 10.62, 8.32 -0.32, 30.86 0" stroke="#1e1e1e" stroke-width="1" fill="none"></path></g><g transform="translate(275.62627480786216 1227.8443133432659) rotate(0 137.4239501953125 17.5)"><text x="137.4239501953125" y="0" font-family="Virgil, Segoe UI Emoji" font-size="28px" fill="#1e1e1e" text-anchor="middle" style="white-space: pre;" direction="ltr" dominant-baseline="text-before-edge">Wait for it to pass</text></g><g stroke-linecap="round" transform="translate(997.4252250031747 1177.3755633432659) rotate(0 152.34375 57.03125)"><path d="M28.52 0 C102.18 0.52, 178.87 -1.75, 276.17 0 M28.52 0 C88.23 1.89, 147.52 1.85, 276.17 0 M276.17 0 C293.49 -1.74, 306.56 8.66, 304.69 28.52 M276.17 0 C293.76 0.81, 305.29 11.62, 304.69 28.52 M304.69 28.52 C303.38 45.18, 304.3 61.44, 304.69 85.55 M304.69 28.52 C304.54 45.21, 305 63.91, 304.69 85.55 M304.69 85.55 C304.86 103.42, 295.39 113.3, 276.17 114.06 M304.69 85.55 C306.94 106.63, 297.36 113.46, 276.17 114.06 M276.17 114.06 C213.77 113.81, 151.9 112.7, 28.52 114.06 M276.17 114.06 C189.64 111.42, 101.53 111.66, 28.52 114.06 M28.52 114.06 C7.52 114.74, 1.28 102.9, 0 85.55 M28.52 114.06 C8.47 115.86, 1.51 103.24, 0 85.55 M0 85.55 C-1.79 63.99, 1.62 44.5, 0 28.52 M0 85.55 C1.34 71.56, 1.14 56.64, 0 28.52 M0 28.52 C-1.26 9.58, 11.47 -1.72, 28.52 0 M0 28.52 C1.41 10.77, 9.56 -1.97, 28.52 0" stroke="#1e1e1e" stroke-width="1" fill="none"></path></g><g transform="translate(1078.5510032014167 1216.9068133432659) rotate(0 71.21797180175781 17.5)"><text x="71.21797180175781" y="0" font-family="Virgil, Segoe UI Emoji" font-size="28px" fill="#1e1e1e" text-anchor="middle" style="white-space: pre;" direction="ltr" dominant-baseline="text-before-edge">Go Around</text></g><g mask="url(#mask-VUtjTaILgUp87yN179Tc5)" stroke-linecap="round"><g transform="translate(594.3002250031747 1000.8388204943474) rotate(0 -91.40625 89.83087142445925)"><path d="M0.09 -0.11 C-27.44 12.32, -134.33 45.59, -164.67 75.54 C-195 105.5, -178.73 162.11, -181.91 179.6 M-1.33 -1.21 C-28.5 11.25, -132.13 46.21, -162.27 76.56 C-192.42 106.91, -178.58 163.92, -182.2 180.89" stroke="#1e1e1e" stroke-width="1" fill="none"></path></g><g transform="translate(594.3002250031747 1000.8388204943474) rotate(0 -91.40625 89.83087142445925)"><path d="M-192.22 152.62 C-188.75 161.27, -186.8 173.45, -182.2 180.89 M-192.22 152.62 C-190.2 161.16, -186.49 168.45, -182.2 180.89" stroke="#1e1e1e" stroke-width="1" fill="none"></path></g><g transform="translate(594.3002250031747 1000.8388204943474) rotate(0 -91.40625 89.83087142445925)"><path d="M-171.7 152.79 C-175.25 161.4, -180.31 173.52, -182.2 180.89 M-171.7 152.79 C-175.74 161.42, -178.09 168.66, -182.2 180.89" stroke="#1e1e1e" stroke-width="1" fill="none"></path></g></g><mask id="mask-VUtjTaILgUp87yN179Tc5"><rect x="0" y="0" fill="#fff" width="877.1127250031747" height="1280.5005633432659"></rect><rect x="337.10974953930736" y="1059.875563343266" fill="#000" width="186.25595092773438" height="35" opacity="1"></rect></mask><g transform="translate(337.1097495393075 1059.8755633432656) rotate(0 165.49685196284588 30.80247531213024)"><text x="93.12797546386719" y="0" font-family="Virgil, Segoe UI Emoji" font-size="28px" fill="#1e1e1e" text-anchor="middle" style="white-space: pre;" direction="ltr" dominant-baseline="text-before-edge">Not Dodgable</text></g><g mask="url(#mask-bm7q2rYK1_FnqnXn99nNL)" stroke-linecap="round"><g transform="translate(954.9678635133454 991.9377887747178) rotate(0 100.13493074491464 90.37513728427405)"><path d="M-0.79 -0.26 C32.22 11.57, 163.62 41.91, 197.31 72.02 C231.01 102.13, 200.78 162.17, 201.38 180.41 M0.99 -1.44 C33.93 10.55, 163.09 39.74, 196.46 70.24 C229.82 100.74, 200.35 163.37, 201.2 181.54" stroke="#1e1e1e" stroke-width="1" fill="none"></path></g><g transform="translate(954.9678635133454 991.9377887747178) rotate(0 100.13493074491464 90.37513728427405)"><path d="M196.29 151.95 C197.27 159.2, 199.93 167.7, 201.2 181.54 M196.29 151.95 C197.07 160.41, 199.55 167.93, 201.2 181.54" stroke="#1e1e1e" stroke-width="1" fill="none"></path></g><g transform="translate(954.9678635133454 991.9377887747178) rotate(0 100.13493074491464 90.37513728427405)"><path d="M216.46 155.72 C212.68 161.95, 210.61 169.57, 201.2 181.54 M216.46 155.72 C211.74 163.27, 208.75 169.77, 201.2 181.54" stroke="#1e1e1e" stroke-width="1" fill="none"></path></g></g><mask id="mask-bm7q2rYK1_FnqnXn99nNL"><rect x="0" y="0" fill="#fff" width="1255.2377250031745" height="1272.6880633432659"></rect><rect x="1090.666741116456" y="1045.8130633432659" fill="#000" width="122.8919677734375" height="35" opacity="1"></rect></mask><g transform="translate(1090.6667411164558 1045.8130633432656) rotate(0 -29.4603531240964 36.176298607274134)"><text x="61.44598388671875" y="0" font-family="Virgil, Segoe UI Emoji" font-size="28px" fill="#1e1e1e" text-anchor="middle" style="white-space: pre;" direction="ltr" dominant-baseline="text-before-edge">Dodgable</text></g><g stroke-linecap="round" transform="translate(573.9877250031747 1422.6880610149594) rotate(0 227.34375 50)"><path d="M25 0 C162.69 -2.64, 303.06 -2.05, 429.69 0 M25 0 C160.11 1.85, 296.08 2.2, 429.69 0 M429.69 0 C447.75 -1.72, 453.06 6.93, 454.69 25 M429.69 0 C448.58 -1.25, 452.92 6.69, 454.69 25 M454.69 25 C455.95 38.4, 455.94 54.32, 454.69 75 M454.69 25 C454.32 41.96, 454.68 60.96, 454.69 75 M454.69 75 C456.63 90.93, 445.97 98.07, 429.69 100 M454.69 75 C453.42 93.21, 447.37 102.07, 429.69 100 M429.69 100 C282.95 100.77, 137.82 101.91, 25 100 M429.69 100 C309.84 98.63, 190.48 98.59, 25 100 M25 100 C6.41 98.39, -0.24 91.96, 0 75 M25 100 C8.48 99.72, 0.74 90.76, 0 75 M0 75 C-1.48 65.13, 1.02 54.01, 0 25 M0 75 C1.04 62.96, 1 48.74, 0 25 M0 25 C0.34 6.33, 9.84 -1.01, 25 0 M0 25 C-1.82 7.61, 6.58 -0.39, 25 0" stroke="#1e1e1e" stroke-width="1" fill="none"></path></g><g transform="translate(623.0135581330575 1437.6880610149594) rotate(0 178.3179168701172 35)"><text x="178.3179168701172" y="0" font-family="Virgil, Segoe UI Emoji" font-size="28px" fill="#1e1e1e" text-anchor="middle" style="white-space: pre;" direction="ltr" dominant-baseline="text-before-edge">Check if delivery location </text><text x="178.3179168701172" y="35" font-family="Virgil, Segoe UI Emoji" font-size="28px" fill="#1e1e1e" text-anchor="middle" style="white-space: pre;" direction="ltr" dominant-baseline="text-before-edge">reached</text></g><g stroke-linecap="round"><g transform="translate(419.30022500317466 1313.3130610149594) rotate(0 172.65625 50.78125)"><path d="M-0.04 0.38 C57.81 17.39, 288.39 84.86, 346.13 101.58 M-1.53 -0.47 C56.33 16.8, 287.65 86.12, 345.61 103.13" stroke="#1e1e1e" stroke-width="1" fill="none"></path></g><g transform="translate(419.30022500317466 1313.3130610149594) rotate(0 172.65625 50.78125)"><path d="M315.67 104.94 C322.82 105.92, 328.74 106.02, 345.61 103.13 M315.67 104.94 C321.87 104.66, 330.14 104, 345.61 103.13" stroke="#1e1e1e" stroke-width="1" fill="none"></path></g><g transform="translate(419.30022500317466 1313.3130610149594) rotate(0 172.65625 50.78125)"><path d="M321.51 85.27 C327.31 90.53, 331.96 94.9, 345.61 103.13 M321.51 85.27 C326.48 89.51, 333.4 93.37, 345.61 103.13" stroke="#1e1e1e" stroke-width="1" fill="none"></path></g></g><mask></mask><g stroke-linecap="round"><g transform="translate(1145.8627250031745 1296.1255610149594) rotate(0 -176.5625 58.59375)"><path d="M-0.17 -1.18 C-58.8 18.09, -293.16 96.46, -351.93 116.22 M-1.72 0.82 C-60.39 20.15, -293.64 97.58, -352.24 117.26" stroke="#1e1e1e" stroke-width="1" fill="none"></path></g><g transform="translate(1145.8627250031745 1296.1255610149594) rotate(0 -176.5625 58.59375)"><path d="M-328.75 98.6 C-337.38 105.94, -343.79 109.91, -352.24 117.26 M-328.75 98.6 C-336.32 105.1, -343.84 110.24, -352.24 117.26" stroke="#1e1e1e" stroke-width="1" fill="none"></path></g><g transform="translate(1145.8627250031745 1296.1255610149594) rotate(0 -176.5625 58.59375)"><path d="M-322.26 118.07 C-332.86 119.79, -341.14 118.15, -352.24 117.26 M-322.26 118.07 C-331.93 118.29, -341.53 117.19, -352.24 117.26" stroke="#1e1e1e" stroke-width="1" fill="none"></path></g></g><mask></mask><g mask="url(#mask-I804av60iiz5bvQ4rLl8v)" stroke-linecap="round"><g transform="translate(765.1740071437815 1528.9380517017337) rotate(0 3.2599129803103892 64.06250000000011)"><path d="M0.46 1.09 C1.47 22.62, 6.25 108.11, 7.06 129.13 M-0.75 0.62 C0.05 21.83, 5.01 106.3, 6.4 127.53" stroke="#1e1e1e" stroke-width="1" fill="none"></path></g><g transform="translate(765.1740071437815 1528.9380517017337) rotate(0 3.2599129803103892 64.06250000000011)"><path d="M-5.56 100.02 C0.87 111.5, 5.34 119.22, 6.4 127.53 M-5.56 100.02 C-3.21 105.2, 0.4 111.53, 6.4 127.53" stroke="#1e1e1e" stroke-width="1" fill="none"></path></g><g transform="translate(765.1740071437815 1528.9380517017337) rotate(0 3.2599129803103892 64.06250000000011)"><path d="M14.92 98.77 C13.45 110.81, 10.02 119.01, 6.4 127.53 M14.92 98.77 C12.73 104.23, 11.8 110.84, 6.4 127.53" stroke="#1e1e1e" stroke-width="1" fill="none"></path></g></g><mask id="mask-I804av60iiz5bvQ4rLl8v"><rect x="0" y="0" fill="#fff" width="871.6938331044023" height="1757.063051701734"></rect><rect x="745.9499265938186" y="1575.5005517017335" fill="#000" width="44.967987060546875" height="35" opacity="1"></rect></mask><g transform="translate(745.9499265938184 1575.5005517017335) rotate(0 22.379469343046594 18.312958376114352)"><text x="22.483993530273438" y="0" font-family="Virgil, Segoe UI Emoji" font-size="28px" fill="#1e1e1e" text-anchor="middle" style="white-space: pre;" direction="ltr" dominant-baseline="text-before-edge">Yes</text></g><g stroke-linecap="round" transform="translate(603.6752250031747 1663.3130517017337) rotate(0 178.125 54.6875)"><path d="M27.34 0 C89.48 -1.95, 153.7 -0.44, 328.91 0 M27.34 0 C89.23 -1.64, 152.17 -1.96, 328.91 0 M328.91 0 C345.49 -0.46, 357.76 8.67, 356.25 27.34 M328.91 0 C347.47 -2.25, 355.58 10.13, 356.25 27.34 M356.25 27.34 C354.27 41.86, 355.25 52.11, 356.25 82.03 M356.25 27.34 C355.54 40.43, 355.12 54.16, 356.25 82.03 M356.25 82.03 C356.72 101.21, 346.93 110.33, 328.91 109.37 M356.25 82.03 C356.84 101.37, 346.63 111.17, 328.91 109.37 M328.91 109.37 C265.27 110.82, 203.28 109.17, 27.34 109.37 M328.91 109.37 C267.54 108.23, 207.29 108.94, 27.34 109.37 M27.34 109.37 C9.44 109.09, 0.7 98.79, 0 82.03 M27.34 109.37 C9.65 110.43, 1.33 100.08, 0 82.03 M0 82.03 C-1.11 62.19, 0.41 39.32, 0 27.34 M0 82.03 C-0.03 69.04, 0.12 56.03, 0 27.34 M0 27.34 C-1.46 9.99, 9.2 1.47, 27.34 0 M0 27.34 C-0.71 10.49, 7.9 -1.19, 27.34 0" stroke="#1e1e1e" stroke-width="1" fill="none"></path></g><g transform="translate(616.40381692212 1697.0630517017337) rotate(0 166.3339080810547 17.5)"><text x="166.3339080810547" y="0" font-family="Virgil, Segoe UI Emoji" font-size="28px" fill="#1e1e1e" text-anchor="middle" style="white-space: pre;" direction="ltr" dominant-baseline="text-before-edge">Notify client to pick up </text></g><g mask="url(#mask-0WOS0HZZpzKBKY16qLo1T)" stroke-linecap="round"><g transform="translate(564.6127250031747 1474.2505563583466) rotate(0 -256.2129951834424 -355.11649695559794)"><path d="M-0.6 -1.07 C-78.15 -0.1, -385.17 125.3, -466.16 6.07 C-547.14 -113.16, -568.69 -597.07, -486.49 -716.46 C-404.29 -835.86, -58.69 -711.68, 27.05 -710.3 M1.29 0.99 C-76.26 2.12, -385.09 127.42, -466.56 7.52 C-548.04 -112.39, -569.77 -598.89, -487.55 -718.43 C-405.34 -837.96, -58.92 -710.94, 26.73 -709.68" stroke="#1e1e1e" stroke-width="1" fill="none"></path></g><g transform="translate(564.6127250031747 1474.2505563583466) rotate(0 -256.2129951834424 -355.11649695559794)"><path d="M-2.87 -704.8 C2.14 -704.05, 10.41 -707.82, 26.73 -709.68 M-2.87 -704.8 C7.67 -705.34, 18.53 -707.88, 26.73 -709.68" stroke="#1e1e1e" stroke-width="1" fill="none"></path></g><g transform="translate(564.6127250031747 1474.2505563583466) rotate(0 -256.2129951834424 -355.11649695559794)"><path d="M0.92 -724.96 C5.1 -719.61, 12.5 -718.75, 26.73 -709.68 M0.92 -724.96 C9.92 -718.27, 19.41 -713.55, 26.73 -709.68" stroke="#1e1e1e" stroke-width="1" fill="none"></path></g></g><mask id="mask-0WOS0HZZpzKBKY16qLo1T"><rect x="0" y="0" fill="#fff" width="1178.6752250031745" height="2297.6880563583463"></rect><rect x="10" y="1091.4772658684178" fill="#000" width="33.54399108886719" height="35" opacity="1"></rect></mask><g transform="translate(10 1091.477265868418) rotate(0 298.3997298197323 27.656793534330802)"><text x="16.771995544433594" y="0" font-family="Virgil, Segoe UI Emoji" font-size="28px" fill="#1e1e1e" text-anchor="middle" style="white-space: pre;" direction="ltr" dominant-baseline="text-before-edge">No</text></g><g stroke-linecap="round" transform="translate(609.9252250031747 1863.3130540300401) rotate(0 178.90625 57.03125)"><path d="M28.52 0 C106.07 0.55, 186.67 1.85, 329.3 0 M28.52 0 C110.62 -0.74, 191.97 -0.77, 329.3 0 M329.3 0 C346.53 -0.01, 356.16 9.01, 357.81 28.52 M329.3 0 C349.65 -0.87, 359.27 8.43, 357.81 28.52 M357.81 28.52 C358.53 47.23, 359.56 66.01, 357.81 85.55 M357.81 28.52 C357.29 47.78, 357.56 64.62, 357.81 85.55 M357.81 85.55 C358.45 106.25, 350.07 113.15, 329.3 114.06 M357.81 85.55 C358.01 103.62, 347.2 113.27, 329.3 114.06 M329.3 114.06 C213.83 112.46, 98.95 111.85, 28.52 114.06 M329.3 114.06 C268.42 114.41, 207.66 114.46, 28.52 114.06 M28.52 114.06 C9 115.39, -0.72 102.61, 0 85.55 M28.52 114.06 C11.38 116.3, -0.07 104.76, 0 85.55 M0 85.55 C1.06 66.59, 1.56 47.99, 0 28.52 M0 85.55 C0.75 73.09, 0.51 60.4, 0 28.52 M0 28.52 C1.61 7.54, 10.28 -1.98, 28.52 0 M0 28.52 C0.42 9.24, 11.37 0.73, 28.52 0" stroke="#1e1e1e" stroke-width="1" fill="none"></path></g><g transform="translate(665.6877753571786 1885.1880540300401) rotate(0 118.2999496459961 35)"><text x="118.2999496459961" y="0" font-family="Virgil, Segoe UI Emoji" font-size="28px" fill="#1e1e1e" text-anchor="middle" style="white-space: pre;" direction="ltr" dominant-baseline="text-before-edge">Check credential </text><text x="118.2999496459961" y="35" font-family="Virgil, Segoe UI Emoji" font-size="28px" fill="#1e1e1e" text-anchor="middle" style="white-space: pre;" direction="ltr" dominant-baseline="text-before-edge">to get package</text></g><g stroke-linecap="round"><g transform="translate(783.3627250031747 1777.3755540300401) rotate(0 0.78125 35.9375)"><path d="M0.7 0.05 C0.89 11.94, 1.4 59.82, 1.36 71.74 M-0.39 -0.97 C-0.4 11.07, -0.23 60.92, 0.3 73.21" stroke="#1e1e1e" stroke-width="1" fill="none"></path></g><g transform="translate(783.3627250031747 1777.3755540300401) rotate(0 0.78125 35.9375)"><path d="M-10.52 45.23 C-6.86 53.82, -3.68 61.32, 0.3 73.21 M-10.52 45.23 C-7.15 53.3, -3.68 61.66, 0.3 73.21" stroke="#1e1e1e" stroke-width="1" fill="none"></path></g><g transform="translate(783.3627250031747 1777.3755540300401) rotate(0 0.78125 35.9375)"><path d="M9.99 44.82 C7.06 53.66, 3.64 61.3, 0.3 73.21 M9.99 44.82 C7.71 52.8, 5.52 61.28, 0.3 73.21" stroke="#1e1e1e" stroke-width="1" fill="none"></path></g></g><mask></mask><g stroke-linecap="round" transform="translate(609.6127250031747 2105.18805403004) rotate(0 176.5625 57.03125)"><path d="M28.52 0 C130.06 1.9, 231.12 0.21, 324.61 0 M28.52 0 C100.68 -1.7, 173.78 -1.46, 324.61 0 M324.61 0 C344.95 -0.11, 354.83 10.24, 353.13 28.52 M324.61 0 C344.77 -2.09, 353.31 10.36, 353.13 28.52 M353.13 28.52 C353.59 46.13, 353.85 60.84, 353.13 85.55 M353.13 28.52 C352.48 49.26, 352.33 68.54, 353.13 85.55 M353.13 85.55 C353.36 103.64, 343.16 112.87, 324.61 114.06 M353.13 85.55 C353.04 104.4, 345.17 112.6, 324.61 114.06 M324.61 114.06 C233.71 114.4, 140.84 115.74, 28.52 114.06 M324.61 114.06 C215.49 114.97, 108.37 115.12, 28.52 114.06 M28.52 114.06 C9.2 112.26, -1.41 104.23, 0 85.55 M28.52 114.06 C8.65 112.95, 1.1 102.66, 0 85.55 M0 85.55 C-0.03 68.57, 0.46 47.78, 0 28.52 M0 85.55 C0.32 71.67, 0.24 58.96, 0 28.52 M0 28.52 C1.9 8.8, 10.59 0.84, 28.52 0 M0 28.52 C1.51 7.8, 11.31 1.88, 28.52 0" stroke="#1e1e1e" stroke-width="1" fill="none"></path></g><g transform="translate(635.6612784699715 2127.21930403004) rotate(0 150.51394653320312 35)"><text x="150.51394653320312" y="0" font-family="Virgil, Segoe UI Emoji" font-size="28px" fill="#1e1e1e" text-anchor="middle" style="white-space: pre;" direction="ltr" dominant-baseline="text-before-edge">Get back to delivery </text><text x="150.51394653320312" y="35" font-family="Virgil, Segoe UI Emoji" font-size="28px" fill="#1e1e1e" text-anchor="middle" style="white-space: pre;" direction="ltr" dominant-baseline="text-before-edge">Station</text></g><g mask="url(#mask-JgQHxFfE3ZsHcC7jj3Sqh)" stroke-linecap="round"><g transform="translate(784.9838444532189 1986.7505540300401) rotate(0 0.6093350080260507 51.40625)"><path d="M0.29 0.74 C0.58 18.03, 1.04 85.69, 0.99 102.8 M-1.02 0.09 C-0.84 17.66, -0.62 87.45, -0.07 104.33" stroke="#1e1e1e" stroke-width="1" fill="none"></path></g><g transform="translate(784.9838444532189 1986.7505540300401) rotate(0 0.6093350080260507 51.40625)"><path d="M-10.77 76.31 C-7.19 82.61, -5.89 87.71, -0.07 104.33 M-10.77 76.31 C-6.13 85.52, -3.34 96.87, -0.07 104.33" stroke="#1e1e1e" stroke-width="1" fill="none"></path></g><g transform="translate(784.9838444532189 1986.7505540300401) rotate(0 0.6093350080260507 51.40625)"><path d="M9.75 75.99 C8.41 82.42, 4.81 87.59, -0.07 104.33 M9.75 75.99 C7.18 85.43, 2.76 96.89, -0.07 104.33" stroke="#1e1e1e" stroke-width="1" fill="none"></path></g></g><mask id="mask-JgQHxFfE3ZsHcC7jj3Sqh"><rect x="0" y="0" fill="#fff" width="886.202514469271" height="2189.56305403004"></rect><rect x="763.1091859309715" y="2020.65680403004" fill="#000" width="44.967987060546875" height="35" opacity="1"></rect></mask><g transform="translate(763.1091859309715 2020.65680403004) rotate(0 21.865163077778902 18.304620081903522)"><text x="22.483993530273438" y="0" font-family="Virgil, Segoe UI Emoji" font-size="28px" fill="#1e1e1e" text-anchor="middle" style="white-space: pre;" direction="ltr" dominant-baseline="text-before-edge">Yes</text></g><g stroke-linecap="round" transform="translate(1130.9252250031745 1973.3755540300401) rotate(0 166.25 58.75)"><path d="M29.38 0 C119.68 2.15, 210.82 1.76, 303.13 0 M29.38 0 C108.44 0.92, 187.7 1.64, 303.13 0 M303.13 0 C323.16 -1.64, 332.57 11.6, 332.5 29.38 M303.13 0 C320.73 -0.26, 331.49 10.35, 332.5 29.38 M332.5 29.38 C332.3 44.51, 330.54 60.53, 332.5 88.13 M332.5 29.38 C333.16 48.92, 332.7 70.47, 332.5 88.13 M332.5 88.13 C334.39 106.14, 323.13 117.17, 303.13 117.5 M332.5 88.13 C332.24 107.93, 322.39 118.13, 303.13 117.5 M303.13 117.5 C200.8 115.85, 96.08 117.49, 29.38 117.5 M303.13 117.5 C210.17 119.02, 118.09 118.25, 29.38 117.5 M29.38 117.5 C11.08 116.96, 0.43 106.9, 0 88.13 M29.38 117.5 C9.47 118.17, 0.29 108.74, 0 88.13 M0 88.13 C-0.16 66.33, -0.9 44.43, 0 29.38 M0 88.13 C-0.7 65.6, 0.32 44.46, 0 29.38 M0 29.38 C0.63 9.6, 9.08 1.12, 29.38 0 M0 29.38 C0.41 10.02, 9.68 -0.68, 29.38 0" stroke="#1e1e1e" stroke-width="1" fill="none"></path></g><g transform="translate(1150.385308010987 1999.3755540300401) rotate(0 152.0399169921875 35)"><text x="152.0399169921875" y="0" font-family="Virgil, Segoe UI Emoji" font-size="28px" fill="#1e1e1e" text-anchor="middle" style="white-space: pre;" direction="ltr" dominant-baseline="text-before-edge">Notify sender to pick </text><text x="152.0399169921875" y="35" font-family="Virgil, Segoe UI Emoji" font-size="28px" fill="#1e1e1e" text-anchor="middle" style="white-space: pre;" direction="ltr" dominant-baseline="text-before-edge">up at delivey station</text></g><g mask="url(#mask-UZZfr0hnFLsd-k4fyhJQ2)" stroke-linecap="round"><g transform="translate(980.9252250031747 1915.8755540300401) rotate(0 150 18.75)"><path d="M0.18 -0.42 C49.97 5.64, 249.04 30.96, 299.1 37.31 M-1.18 -1.69 C48.95 4.47, 251.13 31.95, 301.33 38.75" stroke="#1e1e1e" stroke-width="1" fill="none"></path></g><g transform="translate(980.9252250031747 1915.8755540300401) rotate(0 150 18.75)"><path d="M272.02 45.14 C280.93 41.48, 290.98 41.75, 301.33 38.75 M272.02 45.14 C281.17 43.01, 290.92 41.41, 301.33 38.75" stroke="#1e1e1e" stroke-width="1" fill="none"></path></g><g transform="translate(980.9252250031747 1915.8755540300401) rotate(0 150 18.75)"><path d="M274.77 24.8 C282.94 27.85, 292.09 34.83, 301.33 38.75 M274.77 24.8 C283.16 29.1, 292.03 33.95, 301.33 38.75" stroke="#1e1e1e" stroke-width="1" fill="none"></path></g></g><mask id="mask-UZZfr0hnFLsd-k4fyhJQ2"><rect x="0" y="0" fill="#fff" width="1380.9252250031745" height="2053.37555403004"></rect><rect x="1114.153229458741" y="1917.12555403004" fill="#000" width="33.54399108886719" height="35" opacity="1"></rect></mask><g transform="translate(1114.153229458741 1917.12555403004) rotate(0 16.846296562692146 17.28445235879167)"><text x="16.771995544433594" y="0" font-family="Virgil, Segoe UI Emoji" font-size="28px" fill="#1e1e1e" text-anchor="middle" style="white-space: pre;" direction="ltr" dominant-baseline="text-before-edge">No</text></g><g stroke-linecap="round"><g transform="translate(1268.4252250031745 2095.87555403004) rotate(0 -146.25 35)"><path d="M-1.14 1.15 C-50.08 12.77, -244.29 57.31, -292.92 68.96 M0.47 0.7 C-48.74 12.51, -245.03 58.52, -294.09 69.95" stroke="#1e1e1e" stroke-width="1" fill="none"></path></g><g transform="translate(1268.4252250031745 2095.87555403004) rotate(0 -146.25 35)"><path d="M-268.98 53.54 C-276.27 58.54, -289.01 64.45, -294.09 69.95 M-268.98 53.54 C-278.53 60.05, -287.74 65.73, -294.09 69.95" stroke="#1e1e1e" stroke-width="1" fill="none"></path></g><g transform="translate(1268.4252250031745 2095.87555403004) rotate(0 -146.25 35)"><path d="M-264.31 73.52 C-273.16 71.24, -287.59 69.92, -294.09 69.95 M-264.31 73.52 C-275.65 72.3, -286.67 70.23, -294.09 69.95" stroke="#1e1e1e" stroke-width="1" fill="none"></path></g></g><mask></mask></svg>